HIERARCHY
ROOT Root
{
	OFFSET 0.00000 0.00000 0.00000
	CHANNELS 6 Xposition Yposition Zposition Zrotation Xrotation Yrotation
	JOINT Hips
	{
		OFFSET 0 0 0	
		CHANNELS 3 Zrotation Xrotation Yrotation
		JOINT Spine
		{
			OFFSET 0 4 0	
			CHANNELS 3 Zrotation Xrotation Yrotation
			JOINT Spine1
			{
				OFFSET 0 19.4 0	
				CHANNELS 3 Zrotation Xrotation Yrotation
				JOINT Spine2
				{
					OFFSET 0 16.6 0	
					CHANNELS 3 Zrotation Xrotation Yrotation
					JOINT LeftCollar
					{
						OFFSET 0 10 0	
						CHANNELS 3 Zrotation Xrotation Yrotation
						JOINT LeftArm
						{
							OFFSET 15.6 -2 3	
							CHANNELS 3 Zrotation Xrotation Yrotation
							JOINT LeftForeArm
							{
								OFFSET 3.5 -27 -1	
								CHANNELS 3 Zrotation Xrotation Yrotation
								JOINT LeftHand
								{
									OFFSET 1 -27 1	
									CHANNELS 3 Zrotation Xrotation Yrotation
									End Site
									{
										OFFSET 0 -15 0
									}
								}
							}
						}
					}
					JOINT RightCollar
					{
						OFFSET 0 10 0	
						CHANNELS 3 Zrotation Xrotation Yrotation
						JOINT RightArm
						{
							OFFSET -15.6 -2 3	
							CHANNELS 3 Zrotation Xrotation Yrotation
							JOINT RightForeArm
							{
								OFFSET -3.5 -27 -1	
								CHANNELS 3 Zrotation Xrotation Yrotation
								JOINT RightHand
								{
									OFFSET -1 -27 1	
									CHANNELS 3 Zrotation Xrotation Yrotation
									End Site
									{
										OFFSET 0 -15 0
									}
								}
							}
						}
					}
					JOINT Neck
					{
						OFFSET 0 10 0	
						CHANNELS 3 Zrotation Xrotation Yrotation
						JOINT Head
						{
							OFFSET 0 12.7 3	
							CHANNELS 3 Zrotation Xrotation Yrotation
							End Site
							{
								OFFSET 0 12.7 3
							}
						}
					}
				}
			}
		}
	}
	JOINT LeftHip
	{
		OFFSET 0 0 0	
		CHANNELS 3 Zrotation Xrotation Yrotation
		JOINT LeftUpLeg
		{
			OFFSET 8.8 -6 0	
			CHANNELS 3 Zrotation Xrotation Yrotation
			JOINT LeftLeg
			{
				OFFSET 0 -39 2	
				CHANNELS 3 Zrotation Xrotation Yrotation
				JOINT LeftFoot
				{
					OFFSET 0 -43 -2	
					CHANNELS 3 Zrotation Xrotation Yrotation
					JOINT LeftFootFront
					{
						OFFSET 0 -7 8.5	
						CHANNELS 3 Zrotation Xrotation Yrotation
						End Site
						{
							OFFSET 0 -0.5 9
						}
					}
				}
				JOINT LeftHeel
				{
					OFFSET 0 -43 -2	
					CHANNELS 3 Zrotation Xrotation Yrotation
					End Site
					{
						OFFSET 0 -7.5 -5
					}
				}
			}
		}
	}
	JOINT RightHip
	{
		OFFSET 0 0 0	
		CHANNELS 3 Zrotation Xrotation Yrotation
		JOINT RightUpLeg
		{
			OFFSET -8.8 -6 0	
			CHANNELS 3 Zrotation Xrotation Yrotation
			JOINT RightLeg
			{
				OFFSET 0 -39 2	
				CHANNELS 3 Zrotation Xrotation Yrotation
				JOINT RightFoot
				{
					OFFSET 0 -43 -2	
					CHANNELS 3 Zrotation Xrotation Yrotation
					JOINT RightFootFront
					{
						OFFSET 0 -7 8.5	
						CHANNELS 3 Zrotation Xrotation Yrotation
						End Site
						{
							OFFSET 0 -0.5 9
						}
					}
				}
				JOINT RightHeel
				{
					OFFSET 0 -43 -2	
					CHANNELS 3 Zrotation Xrotation Yrotation
					End Site
					{
						OFFSET 0 -7.5 -5
					}
				}
			}
		}
	}
}
MOTION
Frames: 15
Frame Time: 0.025
0 96.314 0 -0 0 -0 -8.9563 9.8937 -23.769 8.3228 -9.6792 9.1025 8.3228 -9.6792 9.1025 6.8767 -8.2226 7.5394 -0 0 -0 80.619 -52.014 60.891 19.002 -86.334 20.668 -0 0 -0 -0 0 -0 -19.658 -71.937 -27.509 89.79 -52.15 74.164 -0 0 -0 -0.83162 19.181 -1.5166 -0.83162 19.181 -1.5166 -8.9563 9.8937 -23.769 36.151 -26.408 12.415 -25.94 29.449 21.406 -0 0 -0 -0 0 -0 -0 0 -0 -8.9563 9.8937 -23.769 1.1937 -1.8096 -16.895 5.0788 23.746 -26.128 -0 0 -0 -0 0 -0 -0 0 -0 
0 96.314 0 -0 0 -0 -8.9828 9.5831 -23.629 8.0499 -9.2291 8.8762 8.0499 -9.2291 8.8762 6.6562 -7.8391 7.3582 -0 0 -0 77.933 -51.859 61.771 43.321 -88.525 45.064 -0 0 -0 -0 0 -0 -20.219 -70.757 -28.916 91.209 -51.781 74.539 -0 0 -0 -0.75265 18.696 -1.5065 -0.75265 18.696 -1.5065 -8.9828 9.5831 -23.629 36.293 -26.294 12.465 -25.913 29.571 21.199 -0 0 -0 -0 0 -0 -0 0 -0 -8.9828 9.5831 -23.629 0.7128 -2.2848 -17.788 5.2558 25.648 -25.478 -0 0 -0 -0 0 -0 -0 0 -0 
0 96.314 0 -0 0 -0 -9.0184 9.3525 -23.536 7.7674 -8.8769 8.6494 7.7674 -8.8769 8.6494 6.4261 -7.5381 7.175 -0 0 -0 75.506 -51.288 61.322 137.28 -88.359 139.65 -0 0 -0 -0 0 -0 -23.085 -70.202 -31.311 90.042 -52.211 73.151 -0 0 -0 -0.62114 18.243 -1.4798 -0.62114 18.243 -1.4798 -9.0184 9.3525 -23.536 36.476 -26.251 12.479 -25.807 29.679 21.186 -0 0 -0 -0 0 -0 -0 0 -0 -9.0184 9.3525 -23.536 0.32885 -2.8125 -18.671 5.3799 27.429 -24.865 -0 0 -0 -0 0 -0 -0 0 -0 
0 96.314 0 -0 0 -0 -9.0215 9.2014 -23.492 7.4898 -8.6917 8.4309 7.4898 -8.6917 8.4309 6.1976 -7.3775 6.9966 -0 0 -0 73.779 -50.377 59.979 148.35 -86.73 151 -0 0 -0 -0 0 -0 -27.376 -70.195 -34.006 85.877 -53.363 70.031 -0 0 -0 -0.45896 17.933 -1.4422 -0.45896 17.933 -1.4422 -9.0215 9.2014 -23.492 36.687 -26.302 12.493 -25.628 29.752 21.297 -0 0 -0 -0 0 -0 -0 0 -0 -9.0215 9.2014 -23.492 0.022863 -3.4398 -19.475 5.5157 29.099 -24.333 -0 0 -0 -0 0 -0 -0 0 -0 
0 96.314 0 -0 0 -0 -8.982 9.106 -23.529 7.2527 -8.6917 8.2295 7.2527 -8.6917 8.2295 6.0007 -7.3733 6.83 -0 0 -0 73.009 -49.245 58.217 140 -85.718 142.06 -0 0 -0 -0 0 -0 -32.149 -70.543 -36.516 79.106 -54.676 65.627 -0 0 -0 -0.32195 17.891 -1.3883 -0.32195 17.891 -1.3883 -8.982 9.106 -23.529 36.927 -26.386 12.593 -25.376 29.766 21.338 -0 0 -0 -0 0 -0 -0 0 -0 -8.982 9.106 -23.529 -0.20252 -4.1629 -20.09 5.7104 30.626 -23.948 -0 0 -0 -0 0 -0 -0 0 -0 
0 96.314 0 -0 0 -0 -8.9232 9.0229 -23.673 7.0801 -8.8387 8.049 7.0801 -8.8387 8.049 5.8559 -7.4935 6.6787 -0 0 -0 73.223 -48.053 56.322 123.76 -85.224 124.63 -0 0 -0 -0 0 -0 -36.689 -71.167 -38.62 70.363 -55.777 60.671 -0 0 -0 -0.25404 18.176 -1.3059 -0.25404 18.176 -1.3059 -8.9232 9.0229 -23.673 37.176 -26.394 12.81 -24.98 29.695 21.174 -0 0 -0 -0 0 -0 -0 0 -0 -8.9232 9.0229 -23.673 -0.29034 -4.8564 -20.354 6.0183 31.841 -23.826 -0 0 -0 -0 0 -0 -0 0 -0 
0 96.314 0 -0 0 -0 -8.8794 8.9029 -23.924 6.9691 -9.0595 7.8967 6.9691 -9.0595 7.8967 5.7618 -7.6767 6.5498 -0 0 -0 74.376 -47.027 54.455 101.8 -84.612 101.32 -0 0 -0 -0 0 -0 -41.024 -72.067 -40.631 60.484 -56.447 55.728 -0 0 -0 -0.25284 18.742 -1.2021 -0.25284 18.742 -1.2021 -8.8794 8.9029 -23.924 37.393 -26.215 13.071 -24.365 29.471 20.819 -0 0 -0 -0 0 -0 -0 0 -0 -8.8794 8.9029 -23.924 -0.14168 -5.3396 -20.143 6.4437 32.534 -24.033 -0 0 -0 -0 0 -0 -0 0 -0 
0 96.314 0 -0 0 -0 -8.8736 8.7015 -24.261 6.9081 -9.2869 7.7811 6.9081 -9.2869 7.7811 5.7094 -7.8662 6.451 -0 0 -0 76.23 -46.41 52.678 80.509 -83.207 78.608 -0 0 -0 -0 0 -0 -45.668 -73.179 -42.992 50.679 -56.422 50.941 -0 0 -0 -0.29251 19.491 -1.0971 -0.29251 19.491 -1.0971 -8.8736 8.7015 -24.261 37.538 -25.765 13.259 -23.508 28.991 20.334 -0 0 -0 -0 0 -0 -0 0 -0 -8.8736 8.7015 -24.261 0.30301 -5.5223 -19.464 6.8949 32.646 -24.462 -0 0 -0 -0 0 -0 -0 0 -0 
0 96.314 0 -0 0 -0 -8.9255 8.4089 -24.628 6.8975 -9.495 7.7005 6.8975 -9.495 7.7005 5.699 -8.0403 6.3813 -0 0 -0 78.382 -46.35 51.055 65.415 -80.977 61.933 -0 0 -0 -0 0 -0 -50.884 -74.448 -45.559 41.827 -55.557 46.076 -0 0 -0 -0.35881 20.346 -1.0072 -0.35881 20.346 -1.0072 -8.9255 8.4089 -24.628 37.6 -25.018 13.297 -22.4 28.185 19.781 -0 0 -0 -0 0 -0 -0 0 -0 -8.9255 8.4089 -24.628 1.0288 -5.4357 -18.414 7.2803 32.268 -24.985 -0 0 -0 -0 0 -0 -0 0 -0 
0 96.314 0 -0 0 -0 -9.0549 8.0638 -24.941 6.9411 -9.6916 7.6365 6.9411 -9.6916 7.6365 5.734 -8.2053 6.3251 -0 0 -0 80.563 -46.791 49.667 55.609 -78.286 50.435 -0 0 -0 -0 0 -0 -56.588 -75.903 -47.91 34.275 -53.805 40.82 -0 0 -0 -0.45702 21.248 -0.93068 -0.45702 21.248 -0.93068 -9.0549 8.0638 -24.941 37.621 -24.042 13.149 -21.054 27.063 19.221 -0 0 -0 -0 0 -0 -0 0 -0 -9.0549 8.0638 -24.941 1.9776 -5.1517 -17.144 7.5713 31.469 -25.557 -0 0 -0 -0 0 -0 -0 0 -0 
0 96.314 0 -0 0 -0 -9.2506 7.7438 -25.125 7.0274 -9.9163 7.5721 7.0274 -9.9163 7.5721 5.8046 -8.3944 6.2677 -0 0 -0 82.731 -47.569 48.405 48.914 -75.324 42.103 -0 0 -0 -0 0 -0 -62.756 -77.501 -50.193 28.31 -51.197 35.194 -0 0 -0 -0.59078 22.157 -0.8539 -0.59078 22.157 -0.8539 -9.2506 7.7438 -25.125 37.699 -22.999 12.808 -19.596 25.727 18.734 -0 0 -0 -0 0 -0 -0 0 -0 -9.2506 7.7438 -25.125 3.0663 -4.751 -15.859 7.7894 30.29 -26.083 -0 0 -0 -0 0 -0 -0 0 -0 
0 96.314 0 -0 0 -0 -9.4476 7.546 -25.139 7.1299 -10.233 7.4953 7.1299 -10.233 7.4953 5.8879 -8.6608 6.1987 -0 0 -0 84.902 -48.558 46.971 44.128 -72.076 35.968 -0 0 -0 -0 0 -0 -69.671 -79.05 -53.264 24.013 -47.93 29.597 -0 0 -0 -0.75585 23.044 -0.75843 -0.75585 23.044 -0.75843 -9.4476 7.546 -25.139 37.928 -22.162 12.198 -18.26 24.332 18.643 -0 0 -0 -0 0 -0 -0 0 -0 -9.4476 7.546 -25.139 4.2074 -4.341 -14.797 7.9275 28.818 -26.411 -0 0 -0 -0 0 -0 -0 0 -0 
0 96.314 0 -0 0 -0 -9.4998 7.4272 -25.066 7.1815 -10.64 7.4414 7.1815 -10.64 7.4414 5.9272 -9.0026 6.1483 -0 0 -0 87.114 -49.727 45.243 40.507 -68.542 31.569 -0 0 -0 -0 0 -0 -78.071 -80.318 -58.367 21.055 -44.271 24.717 -0 0 -0 -0.91029 23.843 -0.65745 -0.91029 23.843 -0.65745 -9.4998 7.4272 -25.066 38.134 -21.677 11.125 -17.103 22.976 19.47 -0 0 -0 -0 0 -0 -0 0 -0 -9.4998 7.4272 -25.066 5.2378 -3.9542 -14.1 7.9014 27.117 -26.449 -0 0 -0 -0 0 -0 -0 0 -0 
0 96.314 0 -0 0 -0 -9.2406 7.1486 -25.16 7.0909 -11.015 7.5108 7.0909 -11.015 7.5108 5.8461 -9.3175 6.2035 -0 0 -0 89.515 -51.096 43.538 37.386 -64.902 28.288 -0 0 -0 -0 0 -0 -88.745 -81.123 -66.444 19.006 -40.432 20.992 -0 0 -0 -0.96852 24.414 -0.60514 -0.96852 24.414 -0.60514 -9.2406 7.1486 -25.16 37.914 -21.267 9.4645 -15.939 21.637 21.514 -0 0 -0 -0 0 -0 -0 0 -0 -9.2406 7.1486 -25.16 5.9108 -3.4823 -13.601 7.7259 25.233 -26.252 -0 0 -0 -0 0 -0 -0 0 -0 
0 96.314 0 -0 0 -0 -8.6543 6.5793 -25.508 6.8288 -11.272 7.7141 6.8288 -11.272 7.7141 5.6207 -9.5327 6.3745 -0 0 -0 92.284 -52.58 42.3 34.15 -61.348 25.51 -0 0 -0 -0 0 -0 -100.79 -81.418 -76.445 17.657 -36.582 18.199 -0 0 -0 -0.89159 24.629 -0.60847 -0.89159 24.629 -0.60847 -8.6543 6.5793 -25.508 37.258 -20.738 7.4221 -14.86 20.376 24.695 -0 0 -0 -0 0 -0 -0 0 -0 -8.6543 6.5793 -25.508 6.1494 -2.8562 -13.007 7.5976 23.229 -26.126 -0 0 -0 -0 0 -0 -0 0 -0 
